HIERARCHY
ROOT Hips
{
	OFFSET 0.000000 0.000000 0.000000
	CHANNELS 6 Xposition Yposition Zposition Xrotation Yrotation Zrotation
	JOINT LeftUpLeg_virtual
	{
		OFFSET 0.000000 0.000000 0.000000
		CHANNELS 3 Xrotation Yrotation Zrotation
		JOINT LeftUpLeg
		{
			OFFSET 15.427100 -6.655098 0.678600
			CHANNELS 3 Xrotation Yrotation Zrotation
			JOINT LeftLeg
			{
				OFFSET 4.081073 -39.591068 13.024000
				CHANNELS 3 Xrotation Yrotation Zrotation
				JOINT LeftFoot
				{
					OFFSET -4.081074 -37.707932 -15.979700
					CHANNELS 3 Xrotation Yrotation Zrotation
					JOINT LeftToeBase
					{
						OFFSET 5.346399 -15.068900 20.645000
						CHANNELS 3 Xrotation Yrotation Zrotation
						JOINT LeftToe_End
						{
							OFFSET 2.754700 0.931300 11.300900
							CHANNELS 3 Xrotation Yrotation Zrotation
							End Site
							{
								OFFSET 0 0 0
							}
						}
					}
				}
			}
		}
	}
	JOINT RightUpLeg_virtual
	{
		OFFSET 0.000000 0.000000 0.000000
		CHANNELS 3 Xrotation Yrotation Zrotation
		JOINT RightUpLeg
		{
			OFFSET -15.569500 -6.655098 0.678600
			CHANNELS 3 Xrotation Yrotation Zrotation
			JOINT RightLeg
			{
				OFFSET -4.081825 -39.591045 13.023800
				CHANNELS 3 Xrotation Yrotation Zrotation
				JOINT RightFoot
				{
					OFFSET 4.081824 -37.707954 -15.979600
					CHANNELS 3 Xrotation Yrotation Zrotation
					JOINT RightToeBase
					{
						OFFSET -5.346400 -15.068900 20.645000
						CHANNELS 3 Xrotation Yrotation Zrotation
						JOINT RightToe_End
						{
							OFFSET -2.754700 0.931300 11.300900
							CHANNELS 3 Xrotation Yrotation Zrotation
							End Site
							{
								OFFSET 0 0 0
							}
						}
					}
				}
			}
		}
	}
	JOINT Spine_virtual
	{
		OFFSET 0.000000 0.000000 0.000000
		CHANNELS 3 Xrotation Yrotation Zrotation
		JOINT Spine
		{
			OFFSET -0.279200 12.230698 -2.892100
			CHANNELS 3 Xrotation Yrotation Zrotation
			JOINT Spine1
			{
				OFFSET -0.232667 10.192268 -1.242267
				CHANNELS 3 Xrotation Yrotation Zrotation
				JOINT Spine1_split
				{
					OFFSET -0.232667 10.192268 -1.242267
					CHANNELS 3 Xrotation Yrotation Zrotation
					JOINT Spine2
					{
						OFFSET -0.232667 10.192268 -1.242267
						CHANNELS 3 Xrotation Yrotation Zrotation
						JOINT Neck_virtual
						{
							OFFSET 0.000000 0.000000 0.000000
							CHANNELS 3 Xrotation Yrotation Zrotation
							JOINT Neck
							{
								OFFSET -0.418800 17.814194 8.416900
								CHANNELS 3 Xrotation Yrotation Zrotation
								JOINT Head
								{
									OFFSET 0.000000 7.031097 3.806800
									CHANNELS 3 Xrotation Yrotation Zrotation
									JOINT HeadTop_End
									{
										OFFSET 0.000000 24.646606 12.978600
										CHANNELS 3 Xrotation Yrotation Zrotation
										End Site
										{
											OFFSET 0 0 0
										}
									}
								}
							}
						}
						JOINT LeftShoulder_virtual
						{
							OFFSET 0.000000 0.000000 0.000000
							CHANNELS 3 Xrotation Yrotation Zrotation
							JOINT LeftShoulder
							{
								OFFSET 8.476499 7.247704 -3.868750
								CHANNELS 3 Xrotation Yrotation Zrotation
								JOINT LeftShoulder_split
								{
									OFFSET 8.476499 7.247704 -3.868750
									CHANNELS 3 Xrotation Yrotation Zrotation
									JOINT LeftArm
									{
										OFFSET 9.308998 -2.777710 0.208600
										CHANNELS 3 Xrotation Yrotation Zrotation
										JOINT LeftForeArm
										{
											OFFSET 29.972298 0.000000 0.000000
											CHANNELS 3 Xrotation Yrotation Zrotation
											JOINT LeftHand
											{
												OFFSET 26.026505 0.000000 0.000000
												CHANNELS 3 Xrotation Yrotation Zrotation
												End Site
												{
													OFFSET 0 0 0
												}
											}
										}
									}
								}
							}
						}
						JOINT RightShoulder_virtual
						{
							OFFSET 0.000000 0.000000 0.000000
							CHANNELS 3 Xrotation Yrotation Zrotation
							JOINT RightShoulder
							{
								OFFSET -7.570500 7.247704 -3.868750
								CHANNELS 3 Xrotation Yrotation Zrotation
								JOINT RightShoulder_split
								{
									OFFSET -7.570500 7.247704 -3.868750
									CHANNELS 3 Xrotation Yrotation Zrotation
									JOINT RightArm
									{
										OFFSET -9.308998 -2.777710 0.208500
										CHANNELS 3 Xrotation Yrotation Zrotation
										JOINT RightForeArm
										{
											OFFSET -29.972300 0.000000 0.000000
											CHANNELS 3 Xrotation Yrotation Zrotation
											JOINT RightHand
											{
												OFFSET -26.026505 0.000000 0.000000
												CHANNELS 3 Xrotation Yrotation Zrotation
												End Site
												{
													OFFSET 0 0 0
												}
											}
										}
									}
								}
							}
						}
					}
				}
			}
		}
	}
}
MOTION
Frames: 11
Frame Time: 0.03333333
-1.958437 130.541245 -0.541527 0.000000 0.000000 0.000000 5.558578 -3.364382 5.105248 -38.351382 16.820111 1.992886 36.252899 6.152038 -3.653924 37.883200 9.936838 3.187102 -7.160486 0.143846 1.806938 0.000000 0.000000 0.000000 6.935370 -2.696222 4.751600 -3.134521 4.626595 -14.173214 28.851839 -3.877342 13.389642 22.089870 -13.390060 20.879566 0.694150 2.217897 1.195176 0.000000 0.000000 0.000000 7.310951 -4.655907 5.562204 -8.420234 3.076980 -0.553651 -5.462279 1.449538 0.668608 2.049049 -5.337446 2.510154 0.000000 0.000000 0.000000 -2.251715 0.290278 0.579170 -14.457294 -3.654850 -1.299830 -3.706687 1.441274 1.645642 0.000000 0.000000 0.000000 -6.981965 0.691463 0.453787 14.086225 1.907082 29.850993 11.683251 10.403893 -0.466336 -54.046040 -40.396191 4.449108 -41.571687 -23.393299 1.786026 0.000000 0.000000 0.000000 -7.384036 0.523970 1.444877 3.172781 -9.485727 -33.098970 -0.724423 4.321598 0.998953 -72.277144 33.908379 12.327141 -25.954333 28.230089 1.590378 0.000000 0.000000 0.000000 
-0.772800 131.234848 -2.147861 0.000000 0.000000 0.000000 5.354703 -4.837693 5.081018 -36.869023 13.742604 0.595165 38.221172 5.276839 -3.486094 35.433290 9.557506 2.586955 -6.385113 -0.068006 1.839970 0.000000 0.000000 0.000000 6.970002 -4.201488 4.734939 -4.508294 2.101995 -14.208718 30.939401 -2.771623 13.576520 23.905444 -12.035206 20.922275 4.116725 2.365496 0.857131 0.000000 0.000000 0.000000 7.489493 -6.091049 5.474225 -8.625571 2.924202 -0.334807 -5.542165 1.657800 1.164221 1.377107 -3.314778 1.712363 0.000000 0.000000 0.000000 -1.480756 0.582540 0.753185 -14.703427 -3.843711 -0.313369 -4.758474 0.993657 1.518389 0.000000 0.000000 0.000000 -6.678787 0.882868 0.902112 14.178919 1.937426 30.403026 11.030587 8.575501 -0.377527 -56.026392 -42.010448 1.864610 -40.050040 -23.675423 3.559191 0.000000 0.000000 0.000000 -6.726652 0.682760 1.584053 3.287064 -9.464079 -33.202943 -1.116612 4.216234 0.941210 -72.167909 33.081734 11.681146 -26.003684 28.680985 1.533644 0.000000 0.000000 0.000000 
0.931836 132.348770 -4.574749 0.000000 0.000000 0.000000 4.578856 -7.861699 4.698786 -36.432246 10.085667 -1.284200 42.942868 1.965610 -3.237673 30.419798 6.898710 0.692040 -5.759150 -0.365049 1.560390 0.000000 0.000000 0.000000 6.787343 -7.647853 4.560236 -5.234640 -0.884164 -14.514048 31.353802 -2.071783 13.429252 26.333291 -9.727736 20.502211 3.375737 2.443597 0.669156 0.000000 0.000000 0.000000 7.437460 -9.627886 5.164795 -7.974472 3.178956 0.177404 -5.508764 2.676311 1.710780 1.366766 -1.401779 0.332253 0.000000 0.000000 0.000000 -0.806354 1.792156 0.922692 -15.043951 -3.496038 0.309590 -7.275971 1.320489 1.405225 0.000000 0.000000 0.000000 -6.504445 1.978352 1.254850 14.699315 2.604752 30.632326 9.898459 6.492034 -0.529562 -61.787510 -42.721816 -3.291227 -37.348704 -26.743951 6.968029 0.000000 0.000000 0.000000 -6.112469 1.755161 1.851180 4.046560 -9.019028 -33.287446 -1.504350 3.887954 0.657018 -72.561170 31.180930 11.349541 -26.362607 29.545138 1.438147 0.000000 0.000000 0.000000 
2.568759 133.719681 -6.900311 0.000000 0.000000 0.000000 3.571821 -12.080104 3.959997 -37.153169 6.897992 -3.115835 48.150556 -2.135100 -3.015183 23.620882 3.582914 -1.683831 -5.688194 -0.757313 1.248352 0.000000 0.000000 0.000000 6.494936 -12.912820 4.165142 -4.720112 -4.013788 -14.978969 30.165797 -2.127482 12.785972 27.561698 -8.191830 18.250506 0.597952 2.480359 0.799636 0.000000 0.000000 0.000000 6.941791 -15.424101 4.466891 -6.415342 3.869861 0.882445 -5.303046 4.382704 2.269161 1.910059 0.331242 -0.639862 0.000000 0.000000 0.000000 -0.373136 3.769312 1.099276 -15.421362 -2.843747 0.592602 -10.679691 2.414787 1.454915 0.000000 0.000000 0.000000 -6.295652 3.827918 1.455694 15.521786 4.093319 30.578975 7.914303 4.742125 -0.578740 -68.413634 -41.503614 -8.145382 -33.760833 -30.219117 12.153035 0.000000 0.000000 0.000000 -5.511493 3.701794 2.236418 5.253013 -8.266154 -33.480874 -2.019314 3.446674 0.156927 -73.377781 29.271872 11.402092 -26.801620 30.444943 1.169784 0.000000 0.000000 0.000000 
3.732070 135.108002 -8.943485 0.000000 0.000000 0.000000 2.746599 -17.607420 2.958458 -37.875629 4.907513 -4.628132 51.085266 -4.861592 -3.080305 15.718050 2.127915 -2.431187 -6.018009 -1.177303 0.925151 0.000000 0.000000 0.000000 6.435126 -19.942954 3.630833 -3.164926 -6.836968 -15.835128 28.042672 -2.642235 11.730036 27.273826 -7.969017 13.913633 -0.491095 2.422818 1.291213 0.000000 0.000000 0.000000 6.140450 -22.885210 3.439876 -4.216927 4.965999 1.651083 -4.885060 6.573710 2.827031 2.563726 1.122755 -0.574552 0.000000 0.000000 0.000000 -0.163325 6.239205 1.321528 -15.579315 -2.160840 0.768928 -13.910767 4.112194 1.774119 0.000000 0.000000 0.000000 -5.822408 6.173674 1.521740 16.506464 6.404497 30.238931 5.645710 3.348883 -0.789836 -72.869471 -39.368920 -10.239365 -30.663905 -32.479312 17.974630 0.000000 0.000000 0.000000 -4.948288 6.320908 2.728463 6.648984 -7.270076 -33.902682 -2.542883 2.961128 -0.671889 -74.436590 28.383850 11.773640 -27.221026 31.303857 0.678911 0.000000 0.000000 0.000000 
4.342182 136.715759 -11.367535 0.000000 0.000000 0.000000 2.564111 -25.315485 2.000873 -37.361090 4.080320 -5.456259 50.162699 -4.983028 -3.632676 7.982524 3.596250 -0.165574 -6.075584 -1.494544 0.403030 0.000000 0.000000 0.000000 6.000516 -28.703996 2.902870 -1.330874 -9.045998 -17.155898 26.548660 -2.726196 10.521228 27.166861 -8.398477 9.157660 1.003091 2.264999 2.039759 0.000000 0.000000 0.000000 5.497522 -31.366804 2.363144 -1.838585 6.301203 2.296340 -4.243225 8.998159 3.323093 3.065398 0.144149 -0.498865 0.000000 0.000000 0.000000 -0.025243 8.870203 1.549179 -15.393981 -1.707674 1.062336 -16.077161 6.044169 2.411157 0.000000 0.000000 0.000000 -5.046297 8.745671 1.430179 17.593442 8.981269 29.514907 3.678941 2.406315 -0.773996 -73.431391 -36.563550 -7.996138 -29.060549 -32.500892 23.116067 0.000000 0.000000 0.000000 -4.264594 9.267547 3.244297 8.034393 -6.132421 -34.344182 -3.095322 2.369472 -1.886458 -75.770984 28.762534 12.300791 -27.479277 32.126269 -0.146432 0.000000 0.000000 0.000000 
4.479791 138.154755 -13.860043 0.000000 0.000000 0.000000 3.019770 -35.457202 1.441424 -35.293910 3.835023 -5.398630 45.535140 -2.940508 -4.327411 2.013754 7.020952 4.469114 -5.918893 -1.685096 -0.404715 0.000000 0.000000 0.000000 5.453819 -38.565260 2.079012 0.235239 -10.186874 -18.570318 25.492245 -1.749028 8.893137 27.935173 -8.374756 6.128212 2.107209 1.994144 2.813783 0.000000 0.000000 0.000000 5.349666 -40.701367 1.575655 0.201463 7.686574 2.706068 -3.438294 11.422100 3.670049 3.018562 -1.127906 -0.164613 0.000000 0.000000 0.000000 0.176288 11.419004 1.728810 -14.634032 -1.646838 1.484332 -16.428290 7.794768 3.180502 0.000000 0.000000 0.000000 -3.972301 11.289621 1.232881 18.702818 11.392643 28.626250 2.228952 1.717673 -0.034962 -71.281480 -33.123214 -2.354856 -29.357362 -31.201728 26.640991 0.000000 0.000000 0.000000 -3.453009 12.199940 3.618740 9.155875 -5.004080 -34.637914 -3.233439 1.686137 -3.041985 -77.383974 29.946401 13.257911 -27.370878 33.174079 -1.464961 0.000000 0.000000 0.000000 
4.414762 138.513885 -16.552765 0.000000 0.000000 0.000000 3.741675 -46.577662 1.405478 -32.171779 3.575443 -4.556682 39.072176 -0.377402 -4.318215 -0.171679 10.551743 8.762299 -6.255439 -1.806975 -1.116582 0.000000 0.000000 0.000000 5.377635 -48.593073 1.708888 1.365055 -9.564346 -19.594742 23.688296 0.741277 6.519577 28.653989 -7.302434 5.395550 0.980343 1.536287 3.326645 0.000000 0.000000 0.000000 5.822149 -50.035650 1.493556 1.545846 8.968309 2.826129 -2.528876 13.671179 3.788711 2.561156 -1.982111 0.148807 0.000000 0.000000 0.000000 0.502710 13.693168 1.796816 -13.271698 -2.007475 1.935015 -14.376235 9.386529 3.825782 0.000000 0.000000 0.000000 -2.734117 13.597765 0.972675 19.700337 13.250828 27.591526 0.911083 1.453196 1.479306 -69.177727 -30.192479 3.222342 -30.234802 -30.843618 28.575090 0.000000 0.000000 0.000000 -2.585097 14.823469 3.718226 9.846918 -3.991793 -34.582409 -2.664775 0.918884 -3.772404 -79.631024 30.992315 14.935211 -26.789718 34.559907 -3.412469 0.000000 0.000000 0.000000 
4.352873 137.342316 -19.280022 0.000000 0.000000 0.000000 4.612343 -56.741373 2.001539 -28.781929 3.099045 -3.270491 32.802516 1.055079 -3.458880 2.558403 12.635982 9.876792 -6.705277 -1.919470 -1.355858 0.000000 0.000000 0.000000 6.048087 -58.201845 2.333475 1.897456 -7.464496 -20.360493 21.143761 3.936337 3.877695 28.971224 -5.940411 5.522940 0.176903 1.213664 3.630441 0.000000 0.000000 0.000000 6.951175 -58.657036 2.418537 2.068222 10.038457 2.667577 -1.558217 15.653612 3.624785 1.672063 -2.218655 0.023223 0.000000 0.000000 0.000000 0.977646 15.552773 1.678384 -11.496027 -2.793919 2.370591 -10.001809 10.727804 4.091288 0.000000 0.000000 0.000000 -1.487392 15.596023 0.613824 20.404260 14.429256 26.011517 -0.217413 1.147262 2.861284 -68.785920 -28.180544 6.124480 -30.031717 -33.463576 29.480483 0.000000 0.000000 0.000000 -1.567269 16.963417 3.476373 10.114300 -3.078207 -34.034904 -1.267055 0.259033 -3.786619 -83.194190 31.003048 17.867973 -25.729258 36.569321 -6.091637 0.000000 0.000000 0.000000 
4.173406 134.652069 -22.037376 0.000000 0.000000 0.000000 5.872929 -65.052566 3.557599 -25.748264 2.393425 -2.190974 27.518475 0.724206 -2.189537 10.054740 12.101339 6.680300 -6.982292 -2.030890 -0.887235 0.000000 0.000000 0.000000 8.132532 -66.122590 4.764168 1.185993 -4.740757 -21.368168 18.093627 6.993441 1.681316 29.514361 -4.966270 5.530884 0.976906 1.207627 3.836696 0.000000 0.000000 0.000000 8.616747 -65.769968 4.298389 2.046740 10.899081 2.322697 -0.514222 17.337375 3.180332 0.850784 -2.102619 0.405645 0.000000 0.000000 0.000000 1.595582 17.049875 1.354357 -9.432744 -3.826267 2.659753 -3.923374 11.480506 3.801285 0.000000 0.000000 0.000000 -0.212634 17.253247 0.240074 20.593977 15.248133 23.785324 -0.705689 0.007216 3.741444 -71.103553 -28.504579 4.596821 -28.146714 -39.507914 29.815644 0.000000 0.000000 0.000000 -0.526416 18.609890 2.933297 10.077352 -2.154333 -33.107938 0.460468 0.173132 -3.135498 -88.270769 29.413793 22.074359 -24.245370 39.533565 -9.403982 0.000000 0.000000 0.000000 
3.811986 130.437531 -24.985481 0.000000 0.000000 0.000000 7.354747 -71.493632 5.842954 -23.376353 1.920506 -1.431889 23.652771 -0.110128 -1.013209 19.485632 8.661415 1.144355 -6.622544 -2.063881 0.073204 0.000000 0.000000 0.000000 11.637482 -71.702588 8.953263 -1.604628 -2.063793 -23.153392 16.599045 9.948807 0.478893 31.774412 -3.912734 6.528161 0.634627 1.381590 3.933369 0.000000 0.000000 0.000000 10.118616 -71.155278 6.453497 1.813780 11.490577 1.780957 0.680015 18.686365 2.480871 0.748624 -1.634465 1.273601 0.000000 0.000000 0.000000 2.298428 18.224391 0.853028 -7.389501 -5.033692 2.708131 2.865994 11.488627 3.127158 0.000000 0.000000 0.000000 1.040836 18.544961 -0.141026 20.094580 15.674494 21.240007 -0.230322 -1.405921 4.328110 -76.782644 -31.645434 -2.057548 -24.699477 -47.100981 29.800167 0.000000 0.000000 0.000000 0.525094 19.799889 2.217850 9.951226 -1.086394 -31.864089 1.606635 0.782581 -1.709383 -94.109263 26.119149 26.452004 -22.365217 42.905944 -13.281264 0.000000 0.000000 0.000000 
